<svg width="128" height="128" viewBox="0 0 128 128" fill="none" xmlns="http://www.w3.org/2000/svg">
  <defs>
    <radialGradient id="appBg" cx="0" cy="0" r="1" gradientUnits="userSpaceOnUse" gradientTransform="translate(58 36) rotate(56) scale(95 87)">
      <stop stop-color="#262527"/>
      <stop offset="0.7" stop-color="#19191A"/>
      <stop offset="1" stop-color="#101011"/>
    </radialGradient>
    <linearGradient id="topFacet" x1="52" y1="23" x2="84" y2="85" gradientUnits="userSpaceOnUse">
      <stop stop-color="#C9A9FF"/>
      <stop offset="0.48" stop-color="#8A4FEF"/>
      <stop offset="1" stop-color="#D7C6FF"/>
    </linearGradient>
    <linearGradient id="leftLightFacet" x1="41" y1="45" x2="70" y2="91" gradientUnits="userSpaceOnUse">
      <stop stop-color="#F2E9FF"/>
      <stop offset="0.5" stop-color="#D7C5FF"/>
      <stop offset="1" stop-color="#A781FF"/>
    </linearGradient>
    <linearGradient id="leftPurpleFacet" x1="27" y1="70" x2="55" y2="108" gradientUnits="userSpaceOnUse">
      <stop stop-color="#6D33D8"/>
      <stop offset="1" stop-color="#A477FF"/>
    </linearGradient>
    <linearGradient id="rightFacet" x1="77" y1="32" x2="96" y2="94" gradientUnits="userSpaceOnUse">
      <stop stop-color="#7131DF"/>
      <stop offset="0.5" stop-color="#9E72FF"/>
      <stop offset="1" stop-color="#D2BFFF"/>
    </linearGradient>
    <linearGradient id="bottomFacet" x1="59" y1="83" x2="78" y2="116" gradientUnits="userSpaceOnUse">
      <stop stop-color="#4C1EA6"/>
      <stop offset="0.55" stop-color="#6330D0"/>
      <stop offset="1" stop-color="#925DFF"/>
    </linearGradient>
    <linearGradient id="darkFacet" x1="48" y1="76" x2="85" y2="106" gradientUnits="userSpaceOnUse">
      <stop stop-color="#2B106A"/>
      <stop offset="1" stop-color="#6F3DDF"/>
    </linearGradient>
    <filter id="softShadow" x="13" y="10" width="102" height="110" filterUnits="userSpaceOnUse" color-interpolation-filters="sRGB">
      <feDropShadow dx="0" dy="8" stdDeviation="5" flood-color="#000000" flood-opacity="0.35"/>
    </filter>
    <clipPath id="obsidianShape">
      <path d="M63.5 16.8C68.1 16.8 72.1 18.8 75.1 22.4L92.2 43.2C95.5 47.2 96.9 51.8 96.5 57L95.9 65.9C95.4 73.8 100.8 82.1 106.2 88.1C109.2 91.4 109.3 96.2 106.4 99.6L93.8 114.2C90.6 117.9 85.6 119.6 80.8 118.5L61.8 114.2C56.1 112.9 50 113.8 44.9 116.5C40.2 119 34.4 117.5 31.4 113L21.7 98.4C18.6 93.7 18.1 87.7 20.5 82.6L31.2 59.8C33 56 34 51.9 34.3 47.8L35.2 35.3C35.5 31 37.9 27.1 41.5 24.8L56.7 18.8C58.8 17.5 61.1 16.8 63.5 16.8Z"/>
    </clipPath>
  </defs>
  <rect x="10" y="10" width="108" height="108" rx="28" fill="url(#appBg)"/>
  <g filter="url(#softShadow)">
    <g clip-path="url(#obsidianShape)">
      <path d="M63.5 16.8C68.1 16.8 72.1 18.8 75.1 22.4L92.2 43.2C95.5 47.2 96.9 51.8 96.5 57L95.9 65.9C95.4 73.8 100.8 82.1 106.2 88.1C109.2 91.4 109.3 96.2 106.4 99.6L93.8 114.2C90.6 117.9 85.6 119.6 80.8 118.5L61.8 114.2C56.1 112.9 50 113.8 44.9 116.5C40.2 119 34.4 117.5 31.4 113L21.7 98.4C18.6 93.7 18.1 87.7 20.5 82.6L31.2 59.8C33 56 34 51.9 34.3 47.8L35.2 35.3C35.5 31 37.9 27.1 41.5 24.8L56.7 18.8C58.8 17.5 61.1 16.8 63.5 16.8Z" fill="#7442E7"/>
      <path d="M56.7 18.8C64.5 14.1 75.5 17.1 80 25.1C84.8 33.7 80.6 44.4 76.8 52.2C72.1 61.8 71.2 74 76.4 84.1L56.4 79.2C48.7 77.3 41.8 70.8 35.2 62.5C37 57.5 38.1 51.7 38.4 45.5L39.1 34.6C39.4 30.1 42.2 26.1 46.2 24.1L56.7 18.8Z" fill="url(#leftLightFacet)"/>
      <path d="M80 25.1 92.3 43.2C95.5 47.9 96.9 52.7 96.5 57L95.9 65.9C95.4 73.8 100.8 82.1 106.2 88.1L91 106.2C84.2 97.3 81.1 88.3 76.4 84.1C71.2 74 72.1 61.8 76.8 52.2C80.6 44.4 84.8 33.7 80 25.1Z" fill="url(#rightFacet)"/>
      <path d="M35.2 62.5C42.2 68.4 49.2 74.1 56.4 79.2C59.3 89.5 58.4 101.2 48.2 116.8L44.9 116.5C40.2 119 34.4 117.5 31.4 113L21.7 98.4C18.6 93.7 18.1 87.7 20.5 82.6L31.2 59.8C32.3 60.7 33.7 61.6 35.2 62.5Z" fill="url(#leftPurpleFacet)"/>
      <path d="M56.4 79.2C67.7 78 82.6 82.7 91 106.2L93.8 114.2C90.6 117.9 85.6 119.6 80.8 118.5L61.8 114.2C57.4 113.2 52.7 113.5 48.2 116.8C58.4 101.2 59.3 89.5 56.4 79.2Z" fill="url(#darkFacet)"/>
      <path d="M56.4 79.2 76.4 84.1C80.9 89.2 85.2 96.3 91 106.2C84.6 90.2 70.9 80.1 56.4 79.2Z" fill="url(#bottomFacet)"/>
      <path d="M56.7 18.8C65.5 13.6 77.1 17.6 80.8 27.1C77.4 45.1 61.8 55.7 57.7 76.2C49.4 75.6 42 69.1 35.2 62.5C37.2 58.4 38 52.5 38.4 45.5L39.1 34.6C39.4 30.1 42.2 26.1 46.2 24.1L56.7 18.8Z" fill="url(#topFacet)" opacity="0.45"/>
      <path d="M76.4 84.1C70.6 80.8 63.6 78.7 56.4 79.2" stroke="#E6D9FF" stroke-opacity="0.62" stroke-width="2.2"/>
      <path d="M35.2 62.5C43.1 68.6 49.6 74 56.4 79.2" stroke="#E6D9FF" stroke-opacity="0.42" stroke-width="2.2"/>
    </g>
  </g>
  <circle cx="94" cy="94" r="24" fill="#F8F4FF"/>
  <circle cx="94" cy="94" r="20" fill="#FFFFFF" stroke="#D7C6FF" stroke-width="2"/>
  <path d="M86 87 79 94l7 7" stroke="#4A2878" stroke-width="5" stroke-linecap="round" stroke-linejoin="round"/>
  <path d="M102 87 109 94l-7 7" stroke="#4A2878" stroke-width="5" stroke-linecap="round" stroke-linejoin="round"/>
  <path d="M91 104 97 84" stroke="#F0C85A" stroke-width="6" stroke-linecap="round"/>
  <path d="M84 106C88.5 110.8 99.6 111 104.6 105.8" stroke="#217345" stroke-width="3" stroke-linecap="round"/>
</svg>
